<mxfile host="app.diagrams.net" agent="Mozilla/5.0 (Windows NT 10.0; Win64; x64) AppleWebKit/537.36 (KHTML, like Gecko) Chrome/129.0.0.0 Safari/537.36 Edg/129.0.0.0" version="24.7.17">
  <diagram name="Page-1" id="PorJB107iqBZPIkTuAxo">
    <mxGraphModel dx="2593" dy="1420" grid="1" gridSize="10" guides="1" tooltips="1" connect="1" arrows="1" fold="1" page="1" pageScale="1" pageWidth="827" pageHeight="1169" math="0" shadow="0">
      <root>
        <mxCell id="0" />
        <mxCell id="1" parent="0" />
        <mxCell id="sS0r6r3E3DMWFZ9zt6hS-57" style="rounded=0;orthogonalLoop=1;jettySize=auto;html=1;" parent="1" source="sS0r6r3E3DMWFZ9zt6hS-2" target="sS0r6r3E3DMWFZ9zt6hS-56" edge="1">
          <mxGeometry relative="1" as="geometry">
            <mxPoint x="199.91" y="377" as="targetPoint" />
          </mxGeometry>
        </mxCell>
        <mxCell id="3egw6uKPuKfstLKUDJZw-9" style="rounded=0;orthogonalLoop=1;jettySize=auto;html=1;" edge="1" parent="1" source="sS0r6r3E3DMWFZ9zt6hS-2" target="sS0r6r3E3DMWFZ9zt6hS-50">
          <mxGeometry relative="1" as="geometry" />
        </mxCell>
        <mxCell id="sS0r6r3E3DMWFZ9zt6hS-2" value="WebUI (s&lt;span style=&quot;background-color: initial;&quot;&gt;)&lt;/span&gt;" style="rounded=0;whiteSpace=wrap;html=1;" parent="1" vertex="1">
          <mxGeometry x="509.90999999999997" y="310" width="120" height="60" as="geometry" />
        </mxCell>
        <mxCell id="3egw6uKPuKfstLKUDJZw-5" style="rounded=0;orthogonalLoop=1;jettySize=auto;html=1;" edge="1" parent="1" source="sS0r6r3E3DMWFZ9zt6hS-3" target="sS0r6r3E3DMWFZ9zt6hS-53">
          <mxGeometry relative="1" as="geometry" />
        </mxCell>
        <mxCell id="3egw6uKPuKfstLKUDJZw-6" style="rounded=0;orthogonalLoop=1;jettySize=auto;html=1;" edge="1" parent="1" source="sS0r6r3E3DMWFZ9zt6hS-3" target="sS0r6r3E3DMWFZ9zt6hS-52">
          <mxGeometry relative="1" as="geometry" />
        </mxCell>
        <mxCell id="3egw6uKPuKfstLKUDJZw-7" style="rounded=0;orthogonalLoop=1;jettySize=auto;html=1;entryX=0.5;entryY=0;entryDx=0;entryDy=0;" edge="1" parent="1" source="sS0r6r3E3DMWFZ9zt6hS-3" target="sS0r6r3E3DMWFZ9zt6hS-4">
          <mxGeometry relative="1" as="geometry" />
        </mxCell>
        <mxCell id="sS0r6r3E3DMWFZ9zt6hS-3" value="Cus&lt;span style=&quot;background-color: initial;&quot;&gt;tomer&lt;/span&gt;" style="shape=umlActor;verticalLabelPosition=bottom;verticalAlign=top;html=1;outlineConnect=0;" parent="1" vertex="1">
          <mxGeometry x="419.90999999999997" y="30" width="30" height="60" as="geometry" />
        </mxCell>
        <mxCell id="sS0r6r3E3DMWFZ9zt6hS-49" style="rounded=0;orthogonalLoop=1;jettySize=auto;html=1;" parent="1" source="sS0r6r3E3DMWFZ9zt6hS-4" target="sS0r6r3E3DMWFZ9zt6hS-46" edge="1">
          <mxGeometry relative="1" as="geometry" />
        </mxCell>
        <mxCell id="3egw6uKPuKfstLKUDJZw-8" style="rounded=0;orthogonalLoop=1;jettySize=auto;html=1;entryX=0.25;entryY=0;entryDx=0;entryDy=0;" edge="1" parent="1" source="sS0r6r3E3DMWFZ9zt6hS-4" target="sS0r6r3E3DMWFZ9zt6hS-50">
          <mxGeometry relative="1" as="geometry" />
        </mxCell>
        <mxCell id="sS0r6r3E3DMWFZ9zt6hS-4" value="Mobile App" style="rounded=0;whiteSpace=wrap;html=1;" parent="1" vertex="1">
          <mxGeometry x="269.90999999999997" y="180" width="120" height="60" as="geometry" />
        </mxCell>
        <mxCell id="sS0r6r3E3DMWFZ9zt6hS-10" style="rounded=0;orthogonalLoop=1;jettySize=auto;html=1;" parent="1" source="sS0r6r3E3DMWFZ9zt6hS-1" target="sS0r6r3E3DMWFZ9zt6hS-7" edge="1">
          <mxGeometry relative="1" as="geometry" />
        </mxCell>
        <mxCell id="sS0r6r3E3DMWFZ9zt6hS-5" value="Checkout API" style="rounded=0;whiteSpace=wrap;html=1;" parent="1" vertex="1">
          <mxGeometry x="509.90999999999997" y="620" width="120" height="60" as="geometry" />
        </mxCell>
        <mxCell id="sS0r6r3E3DMWFZ9zt6hS-6" value="Payment Service" style="rounded=0;whiteSpace=wrap;html=1;" parent="1" vertex="1">
          <mxGeometry x="929.9099999999999" y="960" width="120" height="60" as="geometry" />
        </mxCell>
        <mxCell id="sS0r6r3E3DMWFZ9zt6hS-23" value="Collect Points" style="rounded=0;orthogonalLoop=1;jettySize=auto;html=1;entryX=1;entryY=0.51;entryDx=0;entryDy=0;entryPerimeter=0;" parent="1" source="sS0r6r3E3DMWFZ9zt6hS-7" target="sS0r6r3E3DMWFZ9zt6hS-33" edge="1">
          <mxGeometry x="0.418" y="4" relative="1" as="geometry">
            <mxPoint as="offset" />
          </mxGeometry>
        </mxCell>
        <mxCell id="sS0r6r3E3DMWFZ9zt6hS-7" value="Order Service" style="rounded=0;whiteSpace=wrap;html=1;" parent="1" vertex="1">
          <mxGeometry x="859.9099999999999" y="620" width="120" height="60" as="geometry" />
        </mxCell>
        <mxCell id="sS0r6r3E3DMWFZ9zt6hS-27" value="fetch points" style="rounded=0;orthogonalLoop=1;jettySize=auto;html=1;exitX=1;exitY=0.75;exitDx=0;exitDy=0;" parent="1" source="sS0r6r3E3DMWFZ9zt6hS-8" target="sS0r6r3E3DMWFZ9zt6hS-28" edge="1">
          <mxGeometry x="0.069" y="1" relative="1" as="geometry">
            <mxPoint as="offset" />
          </mxGeometry>
        </mxCell>
        <mxCell id="3egw6uKPuKfstLKUDJZw-4" value="save points and&lt;br&gt;top customer" style="rounded=0;orthogonalLoop=1;jettySize=auto;html=1;entryX=1;entryY=0;entryDx=0;entryDy=15;entryPerimeter=0;exitX=0.75;exitY=1;exitDx=0;exitDy=0;edgeStyle=orthogonalEdgeStyle;curved=1;" edge="1" parent="1" source="sS0r6r3E3DMWFZ9zt6hS-8" target="sS0r6r3E3DMWFZ9zt6hS-26">
          <mxGeometry x="0.3091" relative="1" as="geometry">
            <mxPoint x="469.90999999999997" y="760" as="sourcePoint" />
            <mxPoint x="510.39" y="1088.12" as="targetPoint" />
            <Array as="points">
              <mxPoint x="379.90999999999997" y="800" />
              <mxPoint x="379.90999999999997" y="1035" />
            </Array>
            <mxPoint as="offset" />
          </mxGeometry>
        </mxCell>
        <mxCell id="sS0r6r3E3DMWFZ9zt6hS-8" value="Leader Board &lt;br&gt;Service" style="rounded=0;whiteSpace=wrap;html=1;" parent="1" vertex="1">
          <mxGeometry x="269.90999999999997" y="740" width="120" height="60" as="geometry" />
        </mxCell>
        <mxCell id="sS0r6r3E3DMWFZ9zt6hS-25" style="rounded=0;orthogonalLoop=1;jettySize=auto;html=1;" parent="1" source="sS0r6r3E3DMWFZ9zt6hS-9" target="sS0r6r3E3DMWFZ9zt6hS-24" edge="1">
          <mxGeometry relative="1" as="geometry" />
        </mxCell>
        <mxCell id="sS0r6r3E3DMWFZ9zt6hS-37" value="" style="rounded=0;orthogonalLoop=1;jettySize=auto;html=1;exitX=0;exitY=0.5;exitDx=0;exitDy=0;exitPerimeter=0;entryX=1;entryY=0.5;entryDx=0;entryDy=0;" parent="1" source="3egw6uKPuKfstLKUDJZw-13" target="sS0r6r3E3DMWFZ9zt6hS-8" edge="1">
          <mxGeometry relative="1" as="geometry">
            <mxPoint x="519.9100000000002" y="793.5" as="sourcePoint" />
          </mxGeometry>
        </mxCell>
        <mxCell id="sS0r6r3E3DMWFZ9zt6hS-42" style="rounded=0;orthogonalLoop=1;jettySize=auto;html=1;entryX=0.5;entryY=1;entryDx=0;entryDy=0;entryPerimeter=0;exitX=1;exitY=0.5;exitDx=0;exitDy=0;" parent="1" source="sS0r6r3E3DMWFZ9zt6hS-9" target="sS0r6r3E3DMWFZ9zt6hS-43" edge="1">
          <mxGeometry relative="1" as="geometry">
            <mxPoint x="179.91" y="850" as="targetPoint" />
          </mxGeometry>
        </mxCell>
        <mxCell id="sS0r6r3E3DMWFZ9zt6hS-9" value="Customer" style="rounded=0;whiteSpace=wrap;html=1;" parent="1" vertex="1">
          <mxGeometry x="669.9099999999999" y="960" width="120" height="60" as="geometry" />
        </mxCell>
        <mxCell id="sS0r6r3E3DMWFZ9zt6hS-14" value="" style="rounded=0;orthogonalLoop=1;jettySize=auto;html=1;" parent="1" source="sS0r6r3E3DMWFZ9zt6hS-5" target="sS0r6r3E3DMWFZ9zt6hS-1" edge="1">
          <mxGeometry relative="1" as="geometry">
            <mxPoint x="599.9099999999999" y="777" as="sourcePoint" />
            <mxPoint x="739.9099999999999" y="777" as="targetPoint" />
          </mxGeometry>
        </mxCell>
        <mxCell id="sS0r6r3E3DMWFZ9zt6hS-1" value="" style="sketch=0;aspect=fixed;pointerEvents=1;shadow=0;dashed=0;html=1;strokeColor=none;labelPosition=center;verticalLabelPosition=bottom;verticalAlign=top;align=center;fillColor=#00188D;shape=mxgraph.azure.queue_generic" parent="1" vertex="1">
          <mxGeometry x="689.9099999999999" y="636.5" width="90" height="27" as="geometry" />
        </mxCell>
        <mxCell id="sS0r6r3E3DMWFZ9zt6hS-17" style="rounded=0;orthogonalLoop=1;jettySize=auto;html=1;exitX=0.5;exitY=1;exitDx=0;exitDy=0;exitPerimeter=0;entryX=1;entryY=0.25;entryDx=0;entryDy=0;" parent="1" source="sS0r6r3E3DMWFZ9zt6hS-15" target="sS0r6r3E3DMWFZ9zt6hS-6" edge="1">
          <mxGeometry relative="1" as="geometry" />
        </mxCell>
        <mxCell id="sS0r6r3E3DMWFZ9zt6hS-15" value="" style="sketch=0;aspect=fixed;pointerEvents=1;shadow=0;dashed=0;html=1;strokeColor=none;labelPosition=center;verticalLabelPosition=bottom;verticalAlign=top;align=center;fillColor=#00188D;shape=mxgraph.azure.queue_generic" parent="1" vertex="1">
          <mxGeometry x="1079.9099999999999" y="830" width="90" height="27" as="geometry" />
        </mxCell>
        <mxCell id="sS0r6r3E3DMWFZ9zt6hS-19" style="rounded=0;orthogonalLoop=1;jettySize=auto;html=1;entryX=0.5;entryY=0;entryDx=0;entryDy=0;entryPerimeter=0;exitX=1;exitY=0.75;exitDx=0;exitDy=0;" parent="1" source="sS0r6r3E3DMWFZ9zt6hS-7" target="sS0r6r3E3DMWFZ9zt6hS-15" edge="1">
          <mxGeometry relative="1" as="geometry" />
        </mxCell>
        <mxCell id="sS0r6r3E3DMWFZ9zt6hS-22" style="rounded=0;orthogonalLoop=1;jettySize=auto;html=1;exitX=0.5;exitY=0;exitDx=0;exitDy=0;exitPerimeter=0;entryX=0.75;entryY=1;entryDx=0;entryDy=0;" parent="1" source="sS0r6r3E3DMWFZ9zt6hS-20" target="sS0r6r3E3DMWFZ9zt6hS-7" edge="1">
          <mxGeometry relative="1" as="geometry" />
        </mxCell>
        <mxCell id="sS0r6r3E3DMWFZ9zt6hS-20" value="" style="sketch=0;aspect=fixed;pointerEvents=1;shadow=0;dashed=0;html=1;strokeColor=none;labelPosition=center;verticalLabelPosition=bottom;verticalAlign=top;align=center;fillColor=#00188D;shape=mxgraph.azure.queue_generic" parent="1" vertex="1">
          <mxGeometry x="944.9099999999999" y="830" width="90" height="27" as="geometry" />
        </mxCell>
        <mxCell id="sS0r6r3E3DMWFZ9zt6hS-21" value="payment&lt;br&gt;succeeded" style="rounded=0;orthogonalLoop=1;jettySize=auto;html=1;entryX=0.5;entryY=1;entryDx=0;entryDy=0;entryPerimeter=0;" parent="1" source="sS0r6r3E3DMWFZ9zt6hS-6" target="sS0r6r3E3DMWFZ9zt6hS-20" edge="1">
          <mxGeometry relative="1" as="geometry" />
        </mxCell>
        <mxCell id="sS0r6r3E3DMWFZ9zt6hS-24" value="Customer" style="shape=cylinder3;whiteSpace=wrap;html=1;boundedLbl=1;backgroundOutline=1;size=15;" parent="1" vertex="1">
          <mxGeometry x="699.9099999999999" y="1070" width="60" height="80" as="geometry" />
        </mxCell>
        <mxCell id="sS0r6r3E3DMWFZ9zt6hS-26" value="Points&lt;br&gt;SQL" style="shape=cylinder3;whiteSpace=wrap;html=1;boundedLbl=1;backgroundOutline=1;size=15;" parent="1" vertex="1">
          <mxGeometry x="299.90999999999997" y="1020" width="60" height="80" as="geometry" />
        </mxCell>
        <mxCell id="sS0r6r3E3DMWFZ9zt6hS-30" style="rounded=0;orthogonalLoop=1;jettySize=auto;html=1;entryX=0.985;entryY=0.702;entryDx=0;entryDy=0;entryPerimeter=0;" parent="1" source="sS0r6r3E3DMWFZ9zt6hS-28" target="sS0r6r3E3DMWFZ9zt6hS-26" edge="1">
          <mxGeometry relative="1" as="geometry" />
        </mxCell>
        <mxCell id="sS0r6r3E3DMWFZ9zt6hS-28" value="Cache" style="shape=parallelogram;perimeter=parallelogramPerimeter;whiteSpace=wrap;html=1;fixedSize=1;" parent="1" vertex="1">
          <mxGeometry x="459.90999999999997" y="960" width="120" height="60" as="geometry" />
        </mxCell>
        <mxCell id="sS0r6r3E3DMWFZ9zt6hS-34" style="rounded=0;orthogonalLoop=1;jettySize=auto;html=1;entryX=1;entryY=0.25;entryDx=0;entryDy=0;exitX=0;exitY=0.5;exitDx=0;exitDy=0;exitPerimeter=0;" parent="1" source="sS0r6r3E3DMWFZ9zt6hS-33" target="sS0r6r3E3DMWFZ9zt6hS-8" edge="1">
          <mxGeometry relative="1" as="geometry" />
        </mxCell>
        <mxCell id="sS0r6r3E3DMWFZ9zt6hS-33" value="" style="sketch=0;aspect=fixed;pointerEvents=1;shadow=0;dashed=0;html=1;strokeColor=none;labelPosition=center;verticalLabelPosition=bottom;verticalAlign=top;align=center;fillColor=#00188D;shape=mxgraph.azure.queue_generic" parent="1" vertex="1">
          <mxGeometry x="519.91" y="740" width="90" height="27" as="geometry" />
        </mxCell>
        <mxCell id="sS0r6r3E3DMWFZ9zt6hS-35" value="fetch&lt;br&gt;customer&lt;br&gt;points" style="rounded=0;orthogonalLoop=1;jettySize=auto;html=1;entryX=0.5;entryY=0;entryDx=0;entryDy=0;entryPerimeter=0;exitX=0.5;exitY=1;exitDx=0;exitDy=0;" parent="1" source="sS0r6r3E3DMWFZ9zt6hS-8" target="sS0r6r3E3DMWFZ9zt6hS-26" edge="1">
          <mxGeometry x="-0.2727" relative="1" as="geometry">
            <mxPoint as="offset" />
          </mxGeometry>
        </mxCell>
        <mxCell id="sS0r6r3E3DMWFZ9zt6hS-38" value="get&lt;br&gt;leaderboard" style="rounded=0;orthogonalLoop=1;jettySize=auto;html=1;entryX=0;entryY=0;entryDx=0;entryDy=15;entryPerimeter=0;exitX=0.25;exitY=1;exitDx=0;exitDy=0;edgeStyle=orthogonalEdgeStyle;curved=1;" parent="1" source="sS0r6r3E3DMWFZ9zt6hS-8" target="sS0r6r3E3DMWFZ9zt6hS-26" edge="1">
          <mxGeometry x="0.3091" relative="1" as="geometry">
            <mxPoint x="299.90999999999997" y="800" as="sourcePoint" />
            <Array as="points">
              <mxPoint x="279.90999999999997" y="800" />
              <mxPoint x="279.90999999999997" y="1035" />
            </Array>
            <mxPoint as="offset" />
          </mxGeometry>
        </mxCell>
        <mxCell id="sS0r6r3E3DMWFZ9zt6hS-39" style="rounded=0;orthogonalLoop=1;jettySize=auto;html=1;entryX=0.5;entryY=0;entryDx=0;entryDy=0;" parent="1" source="sS0r6r3E3DMWFZ9zt6hS-40" target="sS0r6r3E3DMWFZ9zt6hS-9" edge="1">
          <mxGeometry relative="1" as="geometry" />
        </mxCell>
        <mxCell id="sS0r6r3E3DMWFZ9zt6hS-41" value="register customer" style="rounded=0;orthogonalLoop=1;jettySize=auto;html=1;entryX=0.494;entryY=0.153;entryDx=0;entryDy=0;entryPerimeter=0;" parent="1" source="sS0r6r3E3DMWFZ9zt6hS-7" target="sS0r6r3E3DMWFZ9zt6hS-40" edge="1">
          <mxGeometry relative="1" as="geometry">
            <mxPoint x="419.90999999999997" y="750" as="sourcePoint" />
            <mxPoint x="94.91" y="949" as="targetPoint" />
          </mxGeometry>
        </mxCell>
        <mxCell id="sS0r6r3E3DMWFZ9zt6hS-40" value="" style="sketch=0;aspect=fixed;pointerEvents=1;shadow=0;dashed=0;html=1;strokeColor=none;labelPosition=center;verticalLabelPosition=bottom;verticalAlign=top;align=center;fillColor=#00188D;shape=mxgraph.azure.queue_generic" parent="1" vertex="1">
          <mxGeometry x="686.9099999999999" y="830" width="90" height="27" as="geometry" />
        </mxCell>
        <mxCell id="sS0r6r3E3DMWFZ9zt6hS-43" value="" style="sketch=0;aspect=fixed;pointerEvents=1;shadow=0;dashed=0;html=1;strokeColor=none;labelPosition=center;verticalLabelPosition=bottom;verticalAlign=top;align=center;fillColor=#00188D;shape=mxgraph.azure.queue_generic" parent="1" vertex="1">
          <mxGeometry x="809.9099999999999" y="830" width="90" height="27" as="geometry" />
        </mxCell>
        <mxCell id="sS0r6r3E3DMWFZ9zt6hS-44" value="customer registered" style="rounded=0;orthogonalLoop=1;jettySize=auto;html=1;entryX=0.5;entryY=1;entryDx=0;entryDy=0;" parent="1" source="sS0r6r3E3DMWFZ9zt6hS-43" target="sS0r6r3E3DMWFZ9zt6hS-7" edge="1">
          <mxGeometry x="-0.4496" y="-3" relative="1" as="geometry">
            <mxPoint as="offset" />
          </mxGeometry>
        </mxCell>
        <mxCell id="sS0r6r3E3DMWFZ9zt6hS-45" value="Auth Provider" style="rounded=0;whiteSpace=wrap;html=1;" parent="1" vertex="1">
          <mxGeometry x="719.9099999999999" y="470" width="120" height="60" as="geometry" />
        </mxCell>
        <mxCell id="3egw6uKPuKfstLKUDJZw-20" style="edgeStyle=orthogonalEdgeStyle;rounded=0;orthogonalLoop=1;jettySize=auto;html=1;" edge="1" parent="1" source="sS0r6r3E3DMWFZ9zt6hS-50" target="sS0r6r3E3DMWFZ9zt6hS-45">
          <mxGeometry relative="1" as="geometry" />
        </mxCell>
        <mxCell id="sS0r6r3E3DMWFZ9zt6hS-46" value="API Gateway" style="rounded=0;whiteSpace=wrap;html=1;" parent="1" vertex="1">
          <mxGeometry x="269.90999999999997" y="470" width="120" height="60" as="geometry" />
        </mxCell>
        <mxCell id="sS0r6r3E3DMWFZ9zt6hS-47" style="rounded=0;orthogonalLoop=1;jettySize=auto;html=1;" parent="1" source="sS0r6r3E3DMWFZ9zt6hS-46" target="sS0r6r3E3DMWFZ9zt6hS-8" edge="1">
          <mxGeometry relative="1" as="geometry" />
        </mxCell>
        <mxCell id="sS0r6r3E3DMWFZ9zt6hS-48" style="rounded=0;orthogonalLoop=1;jettySize=auto;html=1;entryX=0.75;entryY=0;entryDx=0;entryDy=0;exitX=0;exitY=0.5;exitDx=0;exitDy=0;" parent="1" source="sS0r6r3E3DMWFZ9zt6hS-2" target="sS0r6r3E3DMWFZ9zt6hS-46" edge="1">
          <mxGeometry relative="1" as="geometry" />
        </mxCell>
        <mxCell id="sS0r6r3E3DMWFZ9zt6hS-51" style="rounded=0;orthogonalLoop=1;jettySize=auto;html=1;" parent="1" source="sS0r6r3E3DMWFZ9zt6hS-50" target="sS0r6r3E3DMWFZ9zt6hS-5" edge="1">
          <mxGeometry relative="1" as="geometry" />
        </mxCell>
        <mxCell id="3egw6uKPuKfstLKUDJZw-21" style="edgeStyle=orthogonalEdgeStyle;rounded=0;orthogonalLoop=1;jettySize=auto;html=1;entryX=0.5;entryY=1;entryDx=0;entryDy=0;exitX=0.75;exitY=1;exitDx=0;exitDy=0;" edge="1" parent="1" source="sS0r6r3E3DMWFZ9zt6hS-46" target="sS0r6r3E3DMWFZ9zt6hS-45">
          <mxGeometry relative="1" as="geometry" />
        </mxCell>
        <mxCell id="sS0r6r3E3DMWFZ9zt6hS-50" value="API Gateway" style="rounded=0;whiteSpace=wrap;html=1;" parent="1" vertex="1">
          <mxGeometry x="509.90999999999997" y="470" width="120" height="60" as="geometry" />
        </mxCell>
        <mxCell id="sS0r6r3E3DMWFZ9zt6hS-54" style="rounded=0;orthogonalLoop=1;jettySize=auto;html=1;" parent="1" source="sS0r6r3E3DMWFZ9zt6hS-52" target="sS0r6r3E3DMWFZ9zt6hS-2" edge="1">
          <mxGeometry relative="1" as="geometry" />
        </mxCell>
        <mxCell id="sS0r6r3E3DMWFZ9zt6hS-52" value="Load Balancer" style="rounded=0;whiteSpace=wrap;html=1;" parent="1" vertex="1">
          <mxGeometry x="509.90999999999997" y="180" width="120" height="60" as="geometry" />
        </mxCell>
        <mxCell id="sS0r6r3E3DMWFZ9zt6hS-53" value="CDN" style="rounded=0;whiteSpace=wrap;html=1;" parent="1" vertex="1">
          <mxGeometry x="719.9099999999999" y="180" width="120" height="60" as="geometry" />
        </mxCell>
        <mxCell id="sS0r6r3E3DMWFZ9zt6hS-56" value="Cache" style="shape=parallelogram;perimeter=parallelogramPerimeter;whiteSpace=wrap;html=1;fixedSize=1;" parent="1" vertex="1">
          <mxGeometry x="719.9099999999999" y="310" width="120" height="60" as="geometry" />
        </mxCell>
        <mxCell id="3egw6uKPuKfstLKUDJZw-1" value="&lt;span style=&quot;background-color: initial;&quot;&gt;Problem:&lt;/span&gt;&lt;br&gt;&lt;ol&gt;&lt;li&gt;Design a loyalty program where customer can earn points for each £10 they spend.&lt;/li&gt;&lt;li&gt;When customers login, they should see a dashboard of top n users (n can be 10, 20) with highest points.&lt;/li&gt;&lt;/ol&gt;" style="shape=note;whiteSpace=wrap;html=1;backgroundOutline=1;darkOpacity=0.05;align=left;" vertex="1" parent="1">
          <mxGeometry x="903.41" y="70" width="443" height="130" as="geometry" />
        </mxCell>
        <mxCell id="3egw6uKPuKfstLKUDJZw-3" value="update &lt;br&gt;leaderboard" style="rounded=0;orthogonalLoop=1;jettySize=auto;html=1;entryX=0;entryY=0;entryDx=0;entryDy=52.5;entryPerimeter=0;exitX=0;exitY=0.833;exitDx=0;exitDy=0;exitPerimeter=0;edgeStyle=orthogonalEdgeStyle;curved=1;" edge="1" parent="1" source="sS0r6r3E3DMWFZ9zt6hS-8" target="sS0r6r3E3DMWFZ9zt6hS-26">
          <mxGeometry x="-0.3376" relative="1" as="geometry">
            <Array as="points">
              <mxPoint x="229.91" y="790" />
              <mxPoint x="229.91" y="1073" />
            </Array>
            <mxPoint as="offset" />
          </mxGeometry>
        </mxCell>
        <mxCell id="3egw6uKPuKfstLKUDJZw-14" value="username&lt;br&gt;updated" style="rounded=0;orthogonalLoop=1;jettySize=auto;html=1;entryX=1;entryY=0.51;entryDx=0;entryDy=0;entryPerimeter=0;" edge="1" parent="1" source="sS0r6r3E3DMWFZ9zt6hS-9" target="3egw6uKPuKfstLKUDJZw-13">
          <mxGeometry relative="1" as="geometry">
            <mxPoint x="109.91" y="990" as="sourcePoint" />
            <mxPoint x="269.90999999999997" y="990" as="targetPoint" />
          </mxGeometry>
        </mxCell>
        <mxCell id="3egw6uKPuKfstLKUDJZw-13" value="" style="sketch=0;aspect=fixed;pointerEvents=1;shadow=0;dashed=0;html=1;strokeColor=none;labelPosition=center;verticalLabelPosition=bottom;verticalAlign=top;align=center;fillColor=#00188D;shape=mxgraph.azure.queue_generic" vertex="1" parent="1">
          <mxGeometry x="519.91" y="830" width="90" height="27" as="geometry" />
        </mxCell>
        <mxCell id="3egw6uKPuKfstLKUDJZw-16" value="&lt;span style=&quot;background-color: initial;&quot;&gt;API Endpoints&lt;/span&gt;&lt;br&gt;&lt;ol&gt;&lt;li&gt;&lt;span style=&quot;background-color: initial;&quot;&gt;Get&lt;/span&gt;&lt;br&gt;&lt;span style=&quot;background-color: initial;&quot;&gt;/customer/points/top/n&lt;/span&gt;&lt;br&gt;&lt;br&gt;&lt;span style=&quot;background-color: initial;&quot;&gt;Response&lt;/span&gt;&lt;br&gt;&lt;span style=&quot;background-color: initial;&quot;&gt;username&lt;/span&gt;&lt;br&gt;&lt;span style=&quot;background-color: initial;&quot;&gt;points&lt;/span&gt;&lt;br&gt;&lt;br&gt;&lt;span style=&quot;background-color: initial;&quot;&gt;headers&lt;/span&gt;&lt;br&gt;&lt;span style=&quot;background-color: initial;&quot;&gt;v1&lt;/span&gt;&lt;br&gt;&lt;/li&gt;&lt;/ol&gt;" style="shape=note;whiteSpace=wrap;html=1;backgroundOutline=1;darkOpacity=0.05;align=left;" vertex="1" parent="1">
          <mxGeometry x="1136.41" y="395" width="210" height="180" as="geometry" />
        </mxCell>
        <mxCell id="3egw6uKPuKfstLKUDJZw-17" value="&lt;span style=&quot;background-color: initial;&quot;&gt;Database Design&lt;/span&gt;&lt;br&gt;&lt;ol&gt;&lt;li&gt;Point Table&lt;br&gt;&lt;span style=&quot;background-color: initial;&quot;&gt;Guid customerId&lt;/span&gt;&lt;br&gt;&lt;span style=&quot;background-color: initial;&quot;&gt;int point&lt;/span&gt;&lt;br&gt;&lt;br&gt;&lt;span style=&quot;background-color: initial;&quot;&gt;Top Points&lt;/span&gt;&lt;br&gt;&lt;span style=&quot;background-color: initial;&quot;&gt;Guid customerId&lt;/span&gt;&lt;br&gt;&lt;span style=&quot;background-color: initial;&quot;&gt;string username&lt;/span&gt;&lt;br&gt;&lt;span style=&quot;background-color: initial;&quot;&gt;int points&lt;/span&gt;&lt;br&gt;&lt;/li&gt;&lt;/ol&gt;" style="shape=note;whiteSpace=wrap;html=1;backgroundOutline=1;darkOpacity=0.05;align=left;" vertex="1" parent="1">
          <mxGeometry x="903.41" y="395" width="208" height="180" as="geometry" />
        </mxCell>
        <mxCell id="3egw6uKPuKfstLKUDJZw-18" value="&lt;span style=&quot;background-color: initial;&quot;&gt;Scenarios&lt;/span&gt;&lt;br&gt;&lt;ol&gt;&lt;li&gt;&lt;span style=&quot;background-color: initial;&quot;&gt;Buy&lt;/span&gt;&lt;br&gt;&lt;span style=&quot;background-color: initial;&quot;&gt;Customer buying&lt;/span&gt;&lt;br&gt;&lt;span style=&quot;background-color: initial;&quot;&gt;amount / 10 -&amp;gt; points&lt;/span&gt;&lt;br&gt;&lt;br&gt;&lt;span style=&quot;background-color: initial;&quot;&gt;Dashboard&lt;/span&gt;&lt;br&gt;&lt;span style=&quot;background-color: initial;&quot;&gt;N Top ranking users&amp;nbsp;&lt;/span&gt;&lt;br&gt;&lt;span style=&quot;background-color: initial;&quot;&gt;user, rank&lt;/span&gt;&lt;br&gt;&lt;/li&gt;&lt;/ol&gt;" style="shape=note;whiteSpace=wrap;html=1;backgroundOutline=1;darkOpacity=0.05;align=left;" vertex="1" parent="1">
          <mxGeometry x="1136.41" y="230" width="210" height="140" as="geometry" />
        </mxCell>
        <mxCell id="3egw6uKPuKfstLKUDJZw-19" value="&lt;span style=&quot;background-color: initial;&quot;&gt;Requirements&lt;/span&gt;&lt;br&gt;&lt;ol&gt;&lt;li&gt;&lt;span style=&quot;background-color: initial;&quot;&gt;- online shopping&lt;/span&gt;&lt;br&gt;&lt;span style=&quot;background-color: initial;&quot;&gt;- 99.99 availability&lt;/span&gt;&lt;br&gt;&lt;span style=&quot;background-color: initial;&quot;&gt;- Latency&lt;/span&gt;&lt;br&gt;&lt;span style=&quot;background-color: initial;&quot;&gt;- few millions active customer&lt;/span&gt;&lt;br&gt;&lt;span style=&quot;background-color: initial;&quot;&gt;- authenticated customers&lt;/span&gt;&lt;br&gt;&lt;span style=&quot;background-color: initial;&quot;&gt;- Web/Mobile&lt;/span&gt;&lt;br&gt;&lt;/li&gt;&lt;/ol&gt;" style="shape=note;whiteSpace=wrap;html=1;backgroundOutline=1;darkOpacity=0.05;align=left;" vertex="1" parent="1">
          <mxGeometry x="903.41" y="230" width="208" height="140" as="geometry" />
        </mxCell>
      </root>
    </mxGraphModel>
  </diagram>
</mxfile>
